<svg width="180" height="180" viewBox="0 0 180 180" fill="none" xmlns="http://www.w3.org/2000/svg">
  <!-- Morse code for "SYNC CAPTION" -->
  <!-- Row 1: S = · · · -->
  <circle cx="20" cy="30" r="7" fill="#000000"/>
  <circle cx="35" cy="30" r="7" fill="#000000"/>
  <circle cx="50" cy="30" r="7" fill="#000000"/>
  
  <!-- Row 1: Y = — · — — -->
  <rect x="65" y="26" width="16" height="8" rx="4" fill="#000000"/>
  <circle cx="88" cy="30" r="7" fill="#000000"/>
  <rect x="100" y="26" width="16" height="8" rx="4" fill="#000000"/>
  
  <!-- Row 2: N = — · -->
  <rect x="20" y="55" width="16" height="8" rx="4" fill="#000000"/>
  <circle cx="43" cy="59" r="7" fill="#000000"/>
  
  <!-- Row 2: C = — · — · -->
  <rect x="55" y="55" width="16" height="8" rx="4" fill="#000000"/>
  <circle cx="78" cy="59" r="7" fill="#000000"/>
  <rect x="90" y="55" width="16" height="8" rx="4" fill="#000000"/>
  <circle cx="113" cy="59" r="7" fill="#000000"/>
  
  <!-- Row 3: C = — · — · -->
  <rect x="20" y="80" width="16" height="8" rx="4" fill="#000000"/>
  <circle cx="43" cy="84" r="7" fill="#000000"/>
  <rect x="55" y="80" width="16" height="8" rx="4" fill="#000000"/>
  <circle cx="78" cy="84" r="7" fill="#000000"/>
  
  <!-- Row 3: A = · — -->
  <circle cx="95" cy="84" r="7" fill="#000000"/>
  <rect x="110" y="80" width="16" height="8" rx="4" fill="#000000"/>
  
  <!-- Row 4: P = · — — · -->
  <circle cx="20" cy="109" r="7" fill="#000000"/>
  <rect x="35" y="105" width="16" height="8" rx="4" fill="#000000"/>
  <rect x="55" y="105" width="16" height="8" rx="4" fill="#000000"/>
  <circle cx="78" cy="109" r="7" fill="#000000"/>
  
  <!-- Row 4: T = — -->
  <rect x="95" y="105" width="16" height="8" rx="4" fill="#000000"/>
  
  <!-- Row 5: I = · · -->
  <circle cx="20" cy="134" r="7" fill="#000000"/>
  <circle cx="35" cy="134" r="7" fill="#000000"/>
  
  <!-- Row 5: O = — — — -->
  <rect x="50" y="130" width="16" height="8" rx="4" fill="#000000"/>
  <rect x="70" y="130" width="16" height="8" rx="4" fill="#000000"/>
  <rect x="90" y="130" width="16" height="8" rx="4" fill="#000000"/>
  
  <!-- Row 5: N = — · -->
  <rect x="115" y="130" width="16" height="8" rx="4" fill="#000000"/>
  <circle cx="138" cy="134" r="7" fill="#000000"/>
</svg>
