<svg width="32" height="32" viewBox="0 0 32 32" fill="none" xmlns="http://www.w3.org/2000/svg">
  <!-- Morse code for "SYNC CAPTION" -->
  <!-- Row 1: S = · · · -->
  <circle cx="4" cy="5" r="1.2" fill="#000000"/>
  <circle cx="7" cy="5" r="1.2" fill="#000000"/>
  <circle cx="10" cy="5" r="1.2" fill="#000000"/>
  
  <!-- Row 1: Y = — · — — -->
  <rect x="13" y="3.8" width="2.5" height="2.4" rx="1.2" fill="#000000"/>
  <circle cx="17" cy="5" r="1.2" fill="#000000"/>
  <rect x="19" y="3.8" width="2.5" height="2.4" rx="1.2" fill="#000000"/>
  
  <!-- Row 2: N = — · -->
  <rect x="4" y="9.8" width="2.5" height="2.4" rx="1.2" fill="#000000"/>
  <circle cx="8" cy="11" r="1.2" fill="#000000"/>
  
  <!-- Row 2: C = — · — · -->
  <rect x="11" y="9.8" width="2.5" height="2.4" rx="1.2" fill="#000000"/>
  <circle cx="15" cy="11" r="1.2" fill="#000000"/>
  <rect x="17" y="9.8" width="2.5" height="2.4" rx="1.2" fill="#000000"/>
  <circle cx="21" cy="11" r="1.2" fill="#000000"/>
  
  <!-- Row 3: C = — · — · -->
  <rect x="4" y="14.8" width="2.5" height="2.4" rx="1.2" fill="#000000"/>
  <circle cx="8" cy="16" r="1.2" fill="#000000"/>
  <rect x="10" y="14.8" width="2.5" height="2.4" rx="1.2" fill="#000000"/>
  <circle cx="14" cy="16" r="1.2" fill="#000000"/>
  
  <!-- Row 3: A = · — -->
  <circle cx="17" cy="16" r="1.2" fill="#000000"/>
  <rect x="20" y="14.8" width="2.5" height="2.4" rx="1.2" fill="#000000"/>
  
  <!-- Row 4: P = · — — · -->
  <circle cx="4" cy="21" r="1.2" fill="#000000"/>
  <rect x="7" y="19.8" width="2.5" height="2.4" rx="1.2" fill="#000000"/>
  <rect x="10" y="19.8" width="2.5" height="2.4" rx="1.2" fill="#000000"/>
  <circle cx="14" cy="21" r="1.2" fill="#000000"/>
  
  <!-- Row 4: T = — -->
  <rect x="17" y="19.8" width="2.5" height="2.4" rx="1.2" fill="#000000"/>
  
  <!-- Row 5: I = · · -->
  <circle cx="4" cy="26" r="1.2" fill="#000000"/>
  <circle cx="7" cy="26" r="1.2" fill="#000000"/>
  
  <!-- Row 5: O = — — — -->
  <rect x="10" y="24.8" width="2.5" height="2.4" rx="1.2" fill="#000000"/>
  <rect x="13" y="24.8" width="2.5" height="2.4" rx="1.2" fill="#000000"/>
  <rect x="16" y="24.8" width="2.5" height="2.4" rx="1.2" fill="#000000"/>
  
  <!-- Row 5: N = — · -->
  <rect x="20" y="24.8" width="2.5" height="2.4" rx="1.2" fill="#000000"/>
  <circle cx="24" cy="26" r="1.2" fill="#000000"/>
</svg>

